<svg width="414" height="78" viewBox="0 0 414 78" fill="none" xmlns="http://www.w3.org/2000/svg">
<path d="M246 26C246 31.3851 244.679 35.2389 241.951 38.1279C239.247 40.9938 235.631 42.5 230.5 42.5H228V60.5H218.5V9.5H231.5C241.346 9.5 246 15.5996 246 26ZM228 34H230C232.311 34 233.677 33.6095 234.81 32.3384C235.942 31.0672 236.5 28.889 236.5 26C236.5 23.3421 235.988 21.4757 234.948 20.2046C233.908 18.9103 232.173 18.5 230 18.5H228V34Z" fill="#B9D9EB"/>
<path d="M410.5 21.5C411.632 21.5 412.914 21.6533 414 22L413 31C412.353 30.7689 411.04 30.5 410 30.5C407.758 30.5 406.287 31.4601 405.085 33.2397C403.884 34.9962 403.5 37.6256 403.5 41V60.5H394V22.5H401.5L402.5 27.5H403C404.017 25.0732 405.132 24.0527 406.333 23.0127C407.535 21.9726 408.905 21.5 410.5 21.5Z" fill="#B9D9EB"/>
<path d="M284.75 61.5C279.92 61.5 276.047 59.6706 273.25 56.25C270.477 52.8063 269 47.5365 269 41.25C269 34.8711 270.231 30.3324 272.75 26.75C275.269 23.1676 278.743 21.5 283.25 21.5C287.456 21.5 290.823 23.1761 293.25 26.25C295.677 29.3008 296.5 33.4762 296.5 39V44H278.21C278.279 47.4437 279.135 49.8572 280.475 51.5444C281.816 53.2085 283.393 54 285.75 54C288.755 54 292.357 52.8721 295.5 51V58.5C292.542 60.2796 288.887 61.5 284.75 61.5ZM283.25 28.5C281.933 28.5 280.605 29.3402 279.75 30.75C278.895 32.1367 278.139 34.5648 278 37.5H288.5C288.454 34.6803 287.309 32.2061 286.5 30.75C285.691 29.2939 284.66 28.5 283.25 28.5Z" fill="#B9D9EB"/>
<path d="M317.23 61.4941C315.566 61.4941 314.087 61.1243 312.792 60.3847C311.521 59.622 310.609 58.3952 309.5 56.5H309C309.37 59.6432 309.5 61.3529 309.5 62V78H300V22.5H307.041L308.541 27.5H309.041C310.959 23.6634 313.889 21.5 317.541 21.5C321.054 21.5 323.803 23.2601 325.791 26.75C327.778 30.2168 329.041 35.1442 329.041 41.5C329.041 47.7633 327.598 52.4408 325.541 56C323.484 59.5592 320.789 61.4941 317.23 61.4941ZM314.25 29C312.447 29 311.279 30.1312 310.47 31.8183C309.106 34.7064 309 38.1203 309 41.25C309 45.5026 309.626 48.7016 310.435 50.643C311.244 52.5844 312.378 53.5 314.25 53.5C317.486 53.5 319.5 49.4316 319.5 41.25C319.5 37.2285 318.906 34.2567 318.097 32.269C317.311 30.2814 315.937 29 314.25 29Z" fill="#B9D9EB"/>
<path d="M349.23 61.4941C347.566 61.4941 346.087 61.1243 344.792 60.3847C343.521 59.622 342.609 58.3952 341.5 56.5H341C341.37 59.6432 341.5 61.3529 341.5 62V78H332V22.5H339.041L340.541 27.5H341.041C342.959 23.6634 345.889 21.5 349.541 21.5C353.054 21.5 355.803 23.2601 357.791 26.75C359.778 30.2168 361.041 35.1442 361.041 41.5C361.041 47.7633 359.598 52.4408 357.541 56C355.484 59.5592 352.789 61.4941 349.23 61.4941ZM346.25 29C344.447 29 343.279 30.1312 342.47 31.8183C341.106 34.7064 341 38.1203 341 41.25C341 45.5026 341.626 48.7016 342.435 50.643C343.244 52.5844 344.378 53.5 346.25 53.5C349.486 53.5 351.5 49.4316 351.5 41.25C351.5 37.2285 350.906 34.2567 350.097 32.269C349.311 30.2814 347.937 29 346.25 29Z" fill="#B9D9EB"/>
<path d="M379.25 61.5C374.42 61.5 370.547 59.6706 367.75 56.25C364.977 52.8063 363.5 47.5365 363.5 41.25C363.5 34.8711 364.731 30.3324 367.25 26.75C369.769 23.1676 373.243 21.5 377.75 21.5C381.956 21.5 385.323 23.1761 387.75 26.25C390.177 29.3008 391 33.4762 391 39V44H372.71C372.779 47.4437 373.635 49.8572 374.975 51.5444C376.316 53.2085 377.893 54 380.25 54C383.255 54 386.857 52.8721 390 51V58.5C387.042 60.2796 383.387 61.5 379.25 61.5ZM377.75 28.5C376.433 28.5 375.105 29.3402 374.25 30.75C373.395 32.1367 372.639 34.5648 372.5 37.5H383C382.954 34.6803 381.809 32.2061 381 30.75C380.191 29.2939 379.16 28.5 377.75 28.5Z" fill="#B9D9EB"/>
<path d="M265.5 21.5C266.632 21.5 267.914 21.6533 269 22L268 31C267.353 30.7689 266.04 30.5 265 30.5C262.758 30.5 261.287 31.4601 260.085 33.2397C258.884 34.9962 258.5 37.6256 258.5 41V60.5H249V22.5H256.5L257.5 27.5H258C259.017 25.0732 260.132 24.0527 261.333 23.0127C262.535 21.9726 263.905 21.5 265.5 21.5Z" fill="#B9D9EB"/>
<path d="M126.5 35C126.5 43.3665 124.528 49.7417 121.107 54.1792C117.71 58.5936 112.879 60.5 106.477 60.5H93.9968V9.5H107.5C113.393 9.5 118.033 12.3003 121.315 16.6684C124.597 21.0135 126.5 27.1419 126.5 35ZM116.5 35C116.5 23.6751 113.49 18 107.25 18H103.5V52.5H106.5C109.944 52.5 112.463 51.1168 114.104 48.251C115.745 45.362 116.5 40.778 116.5 35Z" fill="#00A3E0"/>
<path d="M148.481 60.4994L147 55.5H146.5C145.136 57.765 143.662 59.3563 142.206 60.2114C140.75 61.0665 138.969 61.5 136.75 61.5C133.907 61.5 131.609 60.431 129.968 58.3047C128.35 56.1784 127.5 53.0404 127.5 49.25C127.5 45.1823 128.651 42.3458 130.87 40.3813C133.112 38.3937 136.451 37.2959 140.889 37.0879L146 37V34.5C146 30.8945 144.37 28.5 141.25 28.5C138.939 28.5 136.254 29.6973 133.25 31.5L130 25C133.836 22.5732 138.243 21.5 142.75 21.5C146.841 21.5 149.891 22.562 152.017 24.9194C154.167 27.2537 155.5 30.4512 155.5 34.75V60.4994H148.481ZM140.473 54.2832C142.16 54.2832 143.5 53.532 144.494 52.0298C145.511 50.5044 146.02 48.4821 146.02 45.9629V42.7041L143.177 42.8428C141.074 42.9583 139.525 43.5592 138.531 44.6455C137.561 45.7317 137.075 47.3496 137.075 49.499C137.075 52.6885 138.208 54.2832 140.473 54.2832Z" fill="#00A3E0"/>
<path d="M173.271 53.6938C174.566 53.6938 175.998 53.1471 177.5 52.5V60C175.998 61.04 173.754 61.5 170.75 61.5C167.399 61.5 164.87 60.5003 163.252 58.5127C161.634 56.5019 161 53.4984 161 49.5V29.4956H157V25L162 22.5L164.258 13.8603H170.151L170.031 22.5177L177 22.5V29.4956H170V49.75C170 52.3385 171.191 53.6938 173.271 53.6938Z" fill="#00A3E0"/>
<path d="M199.5 60.5L198 55.5H197.5C196.136 57.765 194.854 59.3563 193.398 60.2114C191.942 61.0665 190.219 61.5 188 61.5C185.157 61.5 182.801 60.431 181.16 58.3047C179.543 56.1784 178.5 53.2904 178.5 49.5C178.5 45.4323 179.843 42.3458 182.062 40.3813C184.304 38.3937 187.562 37.208 192 37H197V34C197 30.3945 195.62 28.5 192.5 28.5C190.189 28.5 187.504 29.6973 184.5 31.5L181 25C184.836 22.5732 189.243 21.5 193.75 21.5C197.841 21.5 201.083 22.562 203.209 24.9194C205.359 27.2537 206.5 30.2012 206.5 34.5V60.5H199.5ZM191.665 54.2832C193.352 54.2832 194.692 53.532 195.686 52.0298C196.703 50.5044 197.212 48.4821 197.212 45.9629V42.7041L194.369 42.8428C192.266 42.9583 190.717 43.5592 189.723 44.6455C188.753 45.7317 188.267 47.3496 188.267 49.499C188.267 52.6885 189.4 54.2832 191.665 54.2832Z" fill="#00A3E0"/>
<path fill-rule="evenodd" clip-rule="evenodd" d="M48.8079 36.2961C51.2406 38.2898 54.299 39.393 57.4715 39.393C61.099 39.393 64.5775 37.9506 67.1418 35.3839C69.706 32.8173 71.1462 29.3367 71.1462 25.7079C71.1462 22.0791 69.706 18.5985 67.1418 16.0319C64.5775 13.4652 61.099 12.0228 57.4715 12.0228C53.844 12.0228 50.3655 13.4652 47.8012 16.0319C45.2369 18.5985 43.7967 22.0791 43.7967 25.7079C43.7967 25.7634 43.7971 25.8188 43.7977 25.8743V49.7103C43.7883 49.7988 43.7834 49.8888 43.7834 49.9798C43.7834 53.1305 43.0071 56.2324 41.5234 59.0108C40.0397 61.7892 37.8944 64.1583 35.2778 65.9082C32.6613 67.6582 29.6541 68.7351 26.5227 69.0438C23.3913 69.3525 20.2321 68.8835 17.3249 67.6782C14.4177 66.4728 11.8521 64.5684 9.85554 62.1333C7.85893 59.6981 6.49298 56.8075 5.8789 53.7175C5.26481 50.6274 5.42158 47.4334 6.3353 44.4185C7.24901 41.4036 8.89141 38.661 11.1168 36.4335C12.0946 35.4548 12.0939 33.8687 11.1151 32.8908C10.1364 31.913 8.55028 31.9137 7.57244 32.8925C4.76475 35.7028 2.69301 39.1626 1.54052 42.9653C0.388039 46.7681 0.190322 50.7966 0.964856 54.694C1.73939 58.5915 3.46231 62.2378 5.98121 65.3099C8.50012 68.382 11.7373 70.7852 15.4061 72.3063C19.075 73.8274 23.0621 74.4194 27.0142 74.0298C30.9664 73.6401 34.7614 72.281 38.0631 70.0728C41.3648 67.8646 44.0712 64.8757 45.9428 61.3709C47.7894 57.9131 48.7672 54.0583 48.793 50.1395C48.8028 50.0494 48.8079 49.9578 48.8079 49.8651V36.2961ZM57.4715 17.033C55.1742 17.033 52.9706 17.9464 51.3455 19.573C49.7344 21.1856 48.8228 23.3682 48.8071 25.6481C48.8076 25.6694 48.8079 25.6908 48.8079 25.7122V25.8404C48.8422 28.0939 49.7515 30.2474 51.3455 31.8428C52.9706 33.4694 55.1742 34.3828 57.4715 34.3828C59.7687 34.3828 61.9723 33.4694 63.5974 31.8428C65.2226 30.2161 66.1361 28.0094 66.1361 25.7079C66.1361 23.4064 65.2226 21.1997 63.5974 19.573C61.9723 17.9464 59.7687 17.033 57.4715 17.033Z" fill="#B9D9EB"/>
<path fill-rule="evenodd" clip-rule="evenodd" d="M62.489 6.66392C59.6586 5.90301 56.6919 5.80558 53.818 6.37911C50.9442 6.95264 48.2398 8.18188 45.9141 9.97233C43.5884 11.7628 41.7037 14.0666 40.4064 16.706C39.1268 19.3094 38.4526 22.1702 38.4345 25.0727C38.4385 25.1303 38.4405 25.1885 38.4405 25.2472L38.4405 49.7435C38.4405 50.0373 38.3899 50.3194 38.2969 50.5813C38.1788 51.9843 37.8455 53.3631 37.3066 54.6684C36.6207 56.3297 35.6151 57.8398 34.3469 59.1122C33.0787 60.3846 31.5727 61.3944 29.9146 62.0835C28.2565 62.7726 26.479 63.1273 24.6838 63.1273C22.8886 63.1273 21.1111 62.7726 19.453 62.0835C17.7949 61.3944 16.2889 60.3846 15.0207 59.1122C13.7525 57.8398 12.7469 56.3297 12.061 54.6684C11.3751 53.007 11.0222 51.2267 11.0222 49.4289C11.0222 47.6311 11.3751 45.8508 12.061 44.1894C12.7469 42.528 13.7525 41.0179 15.0207 39.7455C16.2889 38.4731 17.7949 37.4634 19.453 36.7743C21.1111 36.0852 22.8886 35.7304 24.6838 35.7304C26.479 35.7304 28.2565 36.0852 29.9146 36.7743C31.1894 37.3041 32.3743 38.0234 33.4303 38.906L33.4303 25.3729C33.4261 25.3134 33.424 25.2534 33.424 25.193C33.424 21.4835 34.2745 17.8235 35.9101 14.4959C37.5456 11.1683 39.9226 8.26206 42.8578 6.00238C45.793 3.74268 49.2076 2.19028 52.8375 1.46586C56.4675 0.741432 60.2149 0.864529 63.7897 1.82557C67.3645 2.78661 70.6704 4.55966 73.4518 7.00696C76.2332 9.45423 78.4155 12.5101 79.8306 15.9377C81.2457 19.3653 81.8558 23.0732 81.614 26.7747C81.3722 30.4762 80.2849 34.0727 78.4358 37.286C77.7458 38.4851 76.2143 38.8978 75.0151 38.2078C73.816 37.5177 73.4033 35.9863 74.0933 34.7871C75.5598 32.2387 76.4226 29.3854 76.6145 26.4481C76.8064 23.5107 76.3222 20.5686 75.1996 17.8496C74.0771 15.1305 72.3465 12.7078 70.1423 10.7684C67.9381 8.82898 65.3194 7.42483 62.489 6.66392ZM24.6838 40.7406C23.5488 40.7406 22.4248 40.9649 21.3757 41.4008C20.3267 41.8368 19.373 42.476 18.5692 43.2824C17.7655 44.0888 17.1275 45.0466 16.692 46.1013C16.2566 47.156 16.0324 48.2868 16.0324 49.4289C16.0324 50.571 16.2566 51.7017 16.692 52.7565C17.1275 53.8112 17.7655 54.769 18.5692 55.5754C19.373 56.3818 20.3267 57.021 21.3757 57.457C22.4248 57.8929 23.5488 58.1172 24.6838 58.1172C25.8188 58.1172 26.9428 57.8929 27.9919 57.457C29.0409 57.021 29.9946 56.3818 30.7984 55.5754C31.6021 54.769 32.2401 53.8112 32.6756 52.7565C33.111 51.7017 33.3352 50.571 33.3352 49.4289C33.3352 48.2868 33.111 47.156 32.6756 46.1013C32.2401 45.0466 31.6021 44.0888 30.7984 43.2824C29.9946 42.476 29.0409 41.8368 27.9919 41.4008C26.9428 40.9649 25.8188 40.7406 24.6838 40.7406Z" fill="#00A3E0"/>
</svg>
